<?xml version="1.0" encoding="UTF-8" standalone="no"?>
<svg
   xmlns:dc="http://purl.org/dc/elements/1.1/"
   xmlns:cc="http://creativecommons.org/ns#"
   xmlns:rdf="http://www.w3.org/1999/02/22-rdf-syntax-ns#"
   xmlns:svg="http://www.w3.org/2000/svg"
   xmlns="http://www.w3.org/2000/svg"
   xmlns:sodipodi="http://sodipodi.sourceforge.net/DTD/sodipodi-0.dtd"
   xmlns:inkscape="http://www.inkscape.org/namespaces/inkscape"
   width="600"
   height="600"
   version="1.0"
   id="svg2"
   inkscape:version="0.48.3.1 r9886"
   sodipodi:docname="zone_bit_recording.svg">
  <metadata
     id="metadata76">
    <rdf:RDF>
      <cc:Work
         rdf:about="">
        <dc:format>image/svg+xml</dc:format>
        <dc:type
           rdf:resource="http://purl.org/dc/dcmitype/StillImage" />
      </cc:Work>
    </rdf:RDF>
  </metadata>
  <sodipodi:namedview
     pagecolor="#ffffff"
     bordercolor="#666666"
     borderopacity="1"
     objecttolerance="10"
     gridtolerance="10"
     guidetolerance="10"
     inkscape:pageopacity="0"
     inkscape:pageshadow="2"
     inkscape:window-width="1362"
     inkscape:window-height="729"
     id="namedview74"
     showgrid="false"
     inkscape:zoom="1"
     inkscape:cx="300"
     inkscape:cy="389.88646"
     inkscape:window-x="0"
     inkscape:window-y="37"
     inkscape:window-maximized="0"
     inkscape:current-layer="svg2" />
  <!-- Disk structure. Made by MistWiz and released in the Public Domain. -->
  <defs
     id="shapes_n_styles">
    <marker
       orient="auto"
       refY="0.0"
       refX="0.0"
       id="Arrow1Mend"
       style="overflow:visible;">
      <path
         d="M 0.0,0.0 L 5.0,-5.0 L -12.5,0.0 L 5.0,5.0 L 0.0,0.0 z "
         style="fill-rule:evenodd;stroke:#000000;stroke-width:1.0pt;marker-start:none;"
         transform="scale(0.4) rotate(180)"
         id="path6" />
    </marker>
    <style
       type="text/css"
       id="style8">
      .simple { stroke:#000000; stroke-width:1; fill:none; }
      .arrow { stroke:#000000; stroke-width:2; marker-end:url(#Arrow1Mend) }
      .lightGray { stroke:#000000; stroke-width:1; fill:#E0E0E0; }
      .white { stroke:#000000; stroke-width:1; fill:#FFFFFF; }
      .lightRed { stroke:#FF0000; stroke-width:1; fill:#FF8080; }
      .lightBlue { stroke:#0000FF; stroke-width:1; fill:#8080FF;}
      .violet { stroke:#FF00FF; stroke-width:1; fill:#A000A0;}    
      .green { stroke:#00FF00; stroke-width:1; fill:#00A000;}
      .labels {font-size:32px; font-style:normal; font-family:Bitstream Vera Sans}
    </style>
  </defs>
  <circle
     id="radius200"
     class="lightGray"
     cx="300"
     cy="300"
     r="200" />
  <circle
     id="radius150"
     class="green"
     cx="300"
     cy="300"
     r="150" />
  <circle
     id="radius140"
     class="green"
     cx="300"
     cy="300"
     r="140" />
  <circle
     id="radius130"
     class="green"
     cx="300"
     cy="300"
     r="130" />
  <circle
     id="radius120"
     class="green"
     cx="300"
     cy="300"
     r="120" />
  <circle
     id="radius110"
     class="green"
     cx="300"
     cy="300"
     r="110" />
  <circle
     id="radius100"
     class="lightRed"
     cx="300"
     cy="300"
     r="100" />
  <circle
     id="radius90"
     class="lightRed"
     cx="300"
     cy="300"
     r="90" />
  <circle
     id="radius80"
     class="lightRed"
     cx="300"
     cy="300"
     r="80" />
  <circle
     id="radius70"
     class="lightRed"
     cx="300"
     cy="300"
     r="70" />
  <circle
     id="radius60"
     class="lightRed"
     cx="300"
     cy="300"
     r="60" />
  <circle
     id="radius50"
     class="white"
     cx="300"
     cy="300"
     r="50" />
  <circle
     id="radius160"
     class="simple"
     cx="300"
     cy="300"
     r="160" />
  <circle
     id="radius170"
     class="simple"
     cx="300"
     cy="300"
     r="170" />
  <circle
     id="radius180"
     class="simple"
     cx="300"
     cy="300"
     r="180" />
  <circle
     id="radius190"
     class="simple"
     cx="300"
     cy="300"
     r="190" />
  <line
     id="0"
     class="simple"
     x1="350"
     y1="300"
     x2="500"
     y2="300" />
  <line
     id="7"
     class="simple"
     x1="499"
     y1="278"
     x2="450"
     y2="280" />
  <line
     id="15"
     class="simple"
     x1="493"
     y1="247"
     x2="395"
     y2="273" />
  <line
     id="22"
     class="simple"
     x1="486"
     y1="220"
     x2="440"
     y2="242" />
  <line
     id="30"
     class="simple"
     x1="473.20"
     y1="200"
     x2="343.30"
     y2="275" />
  <line
     id="37"
     class="simple"
     x1="462"
     y1="180"
     x2="420"
     y2="212" />
  <line
     id="45"
     class="simple"
     x1="445"
     y1="163"
     x2="370"
     y2="230" />
  <line
     id="52"
     class="simple"
     x1="423"
     y1="143"
     x2="393"
     y2="183" />
  <line
     id="60"
     class="simple"
     x1="400"
     y1="128.80"
     x2="325"
     y2="256.70" />
  <line
     id="67"
     class="simple"
     x1="378"
     y1="115"
     x2="356"
     y2="162" />
  <line
     id="75"
     class="simple"
     x1="350"
     y1="105"
     x2="325"
     y2="204" />
  <line
     id="82"
     class="simple"
     x1="325"
     y1="102"
     x2="319"
     y2="152" />
  <line
     id="90"
     class="simple"
     x1="300"
     y1="100"
     x2="300"
     y2="250" />
  <line
     id="97"
     class="simple"
     x1="275"
     y1="102"
     x2="282"
     y2="152" />
  <line
     id="105"
     class="simple"
     x1="250"
     y1="107"
     x2="275"
     y2="204" />
  <line
     id="112"
     class="simple"
     x1="225"
     y1="113"
     x2="246"
     y2="161" />
  <line
     id="120"
     class="simple"
     x1="200"
     y1="128.80"
     x2="275"
     y2="256.70" />
  <line
     id="127"
     class="simple"
     x1="180"
     y1="140"
     x2="210"
     y2="180" />
  <line
     id="135"
     class="simple"
     x1="159"
     y1="157"
     x2="230"
     y2="230" />
  <line
     id="142"
     class="simple"
     x1="142"
     y1="175"
     x2="185"
     y2="205" />
  <line
     id="150"
     class="simple"
     x1="128.80"
     y1="200"
     x2="256.70"
     y2="275" />
  <line
     id="157"
     class="simple"
     x1="113"
     y1="227"
     x2="163"
     y2="243" />
  <line
     id="165"
     class="simple"
     x1="106"
     y1="250"
     x2="205"
     y2="272" />
  <line
     id="172"
     class="simple"
     x1="100"
     y1="277"
     x2="153"
     y2="283" />
  <line
     id="180"
     class="simple"
     x1="100"
     y1="300"
     x2="250"
     y2="300" />
  <line
     id="187"
     class="simple"
     x1="101"
     y1="327"
     x2="153"
     y2="318" />
  <line
     id="195"
     class="simple"
     x1="106"
     y1="350"
     x2="204"
     y2="322" />
  <line
     id="202"
     class="simple"
     x1="114"
     y1="375"
     x2="160"
     y2="355" />
  <line
     id="210"
     class="simple"
     x1="128.80"
     y1="400"
     x2="256.70"
     y2="325" />
  <line
     id="217"
     class="simple"
     x1="142"
     y1="423"
     x2="180"
     y2="390" />
  <line
     id="225"
     class="simple"
     x1="158"
     y1="440"
     x2="230"
     y2="370" />
  <line
     id="232"
     class="simple"
     x1="174"
     y1="457"
     x2="207"
     y2="418" />
  <line
     id="240"
     class="simple"
     x1="200"
     y1="473.20"
     x2="275"
     y2="343.30" />
  <line
     id="247"
     class="simple"
     x1="224"
     y1="484"
     x2="245"
     y2="438" />
  <line
     id="255"
     class="simple"
     x1="248"
     y1="494"
     x2="278"
     y2="397" />
  <line
     id="262"
     class="simple"
     x1="275"
     y1="498"
     x2="282"
     y2="448" />
  <line
     id="270"
     class="simple"
     x1="300"
     y1="350"
     x2="300"
     y2="500" />
  <line
     id="277"
     class="simple"
     x1="325"
     y1="498"
     x2="320"
     y2="448" />
  <line
     id="285"
     class="simple"
     x1="350"
     y1="494"
     x2="325"
     y2="397" />
  <line
     id="292"
     class="simple"
     x1="375"
     y1="485"
     x2="355"
     y2="440" />
  <line
     id="300"
     class="simple"
     x1="400"
     y1="473.20"
     x2="325"
     y2="343.30" />
  <line
     id="307"
     class="simple"
     x1="420"
     y1="460"
     x2="390"
     y2="420" />
  <line
     id="315"
     class="simple"
     x1="445"
     y1="439"
     x2="370"
     y2="370" />
  <line
     id="322"
     class="simple"
     x1="460"
     y1="420"
     x2="418"
     y2="390" />
  <line
     id="330"
     class="simple"
     x1="473.20"
     y1="400"
     x2="343.30"
     y2="325" />
  <line
     id="337"
     class="simple"
     x1="485"
     y1="380"
     x2="438"
     y2="360" />
  <line
     id="345"
     class="simple"
     x1="492"
     y1="355"
     x2="394"
     y2="325" />
  <line
     id="352"
     class="simple"
     x1="498"
     y1="325"
     x2="448"
     y2="320" />
  <!-- A for track 
  <path id="arrowA" class="simple" d="M 364.7047613,58.51854343 L 329.7641902,188.91853 Z"/>
  <text class="labels" x="364.7047613" y="58.51854343">A</text> -->
  <!-- B for sector
  <path id="arrowB" class="simple" d="M 491.5111108, 139.3030976 L 453.2088886,171.4424781 Z"/>
  <text class="labels" x="491.5111108" y="139.3030976">B</text>
  -->
</svg>
